<?xml version="1.0" encoding="UTF-8"?>
<!-- Created with Inkscape (http://www.inkscape.org/) -->
<svg width="111.39mm" height="34.64mm" version="1.1" viewBox="0 0 111.39 34.64" xmlns="http://www.w3.org/2000/svg">
 <defs>
  <linearGradient id="linearGradient62" x2="1" gradientTransform="matrix(51.304 0 0 -51.304 334.46 247.96)" gradientUnits="userSpaceOnUse">
   <stop stop-color="#0071bc" offset="0"/>
   <stop stop-color="#0ff" offset="1"/>
  </linearGradient>
  <linearGradient id="linearGradient82" x2="1" gradientTransform="matrix(57.982 0 0 -57.982 331 305.5)" gradientUnits="userSpaceOnUse">
   <stop stop-color="#0071bc" offset="0"/>
   <stop stop-color="#0ff" offset="1"/>
  </linearGradient>
  <linearGradient id="linearGradient104" x2="1" gradientTransform="matrix(32.926 0 0 -32.926 343.63 282.13)" gradientUnits="userSpaceOnUse">
   <stop stop-color="#807b80" offset="0"/>
   <stop stop-color="#f3f4f4" offset=".83188"/>
   <stop stop-color="#f3f4f4" offset="1"/>
  </linearGradient>
  <clipPath id="clipPath114">
   <path d="m0 504h720v-504h-720z"/>
  </clipPath>
  <linearGradient id="linearGradient138" x2="1" gradientTransform="matrix(0 -28.486 -28.486 0 334.05 293.13)" gradientUnits="userSpaceOnUse">
   <stop stop-color="#807b80" offset="0"/>
   <stop stop-color="#f3f4f4" offset=".83188"/>
   <stop stop-color="#f3f4f4" offset="1"/>
  </linearGradient>
  <linearGradient id="linearGradient160" x2="1" gradientTransform="matrix(0 -28.486 -28.486 0 385.92 293.13)" gradientUnits="userSpaceOnUse">
   <stop stop-color="#807b80" offset="0"/>
   <stop stop-color="#f3f4f4" offset=".83188"/>
   <stop stop-color="#f3f4f4" offset="1"/>
  </linearGradient>
  <linearGradient id="linearGradient192" x2="1" gradientTransform="matrix(0 26.942 26.942 0 332.65 271.07)" gradientUnits="userSpaceOnUse">
   <stop stop-color="#a7a9ac" offset="0"/>
   <stop stop-color="#a7a9ac" offset=".033708"/>
   <stop stop-color="#a7a9ac" offset=".092267"/>
   <stop stop-color="#c4c6c8" offset=".38202"/>
   <stop stop-color="#c4c6c8" offset=".43869"/>
   <stop stop-color="#a7a9ac" offset=".7191"/>
   <stop stop-color="#d1d3d4" offset="1"/>
  </linearGradient>
  <linearGradient id="linearGradient224" x2="1" gradientTransform="matrix(0 26.942 26.942 0 387.66 271.07)" gradientUnits="userSpaceOnUse">
   <stop stop-color="#a7a9ac" offset="0"/>
   <stop stop-color="#a7a9ac" offset=".033708"/>
   <stop stop-color="#a7a9ac" offset=".092267"/>
   <stop stop-color="#c4c6c8" offset=".38202"/>
   <stop stop-color="#c4c6c8" offset=".43869"/>
   <stop stop-color="#a7a9ac" offset=".7191"/>
   <stop stop-color="#d1d3d4" offset="1"/>
  </linearGradient>
  <linearGradient id="linearGradient256" x2="1" gradientTransform="matrix(16.557 0 0 -16.557 351.63 297.37)" gradientUnits="userSpaceOnUse">
   <stop stop-color="#a7a9ac" offset="0"/>
   <stop stop-color="#a7a9ac" offset=".033708"/>
   <stop stop-color="#a7a9ac" offset=".092267"/>
   <stop stop-color="#c4c6c8" offset=".38202"/>
   <stop stop-color="#c4c6c8" offset=".43869"/>
   <stop stop-color="#a7a9ac" offset=".7191"/>
   <stop stop-color="#d1d3d4" offset="1"/>
  </linearGradient>
  <clipPath id="clipPath266">
   <path d="m0 504h720v-504h-720z"/>
  </clipPath>
 </defs>
 <g transform="translate(-20.166 -190.22)">
  <g transform="matrix(.35278 0 0 -.35278 -53.716 249.02)">
   <g transform="translate(337.37 104.09)">
    <path d="m0 0-4.043 6.787h-12.757l2.225 3.82h8.27l-6.007 10.088-12.239-20.695h-5.378l15.503 25.813c0.271 0.469 0.593 0.84 0.964 1.112s0.816 0.408 1.335 0.408 0.958-0.136 1.316-0.408 0.674-0.643 0.946-1.112l15.539-25.813z" fill="#1a1a1a"/>
   </g>
   <g transform="translate(367.75 131.05)">
    <path d="m0 0h4.598v-15.057c0-2.077-0.272-3.889-0.815-5.433-0.544-1.547-1.398-2.825-2.559-3.84-1.162-1.014-2.665-1.768-4.506-2.262-1.842-0.494-4.074-0.741-6.694-0.741-2.596 0-4.816 0.247-6.657 0.741-1.843 0.494-3.345 1.248-4.506 2.262-1.163 1.015-2.016 2.293-2.559 3.84-0.544 1.544-0.816 3.356-0.816 5.433v15.057h4.858v-15.057c0-1.361 0.167-2.522 0.5-3.486 0.335-0.964 0.878-1.756 1.633-2.374 0.754-0.618 1.761-1.07 3.022-1.353 1.261-0.286 2.818-0.427 4.673-0.427 1.854 0 3.412 0.141 4.673 0.427 1.26 0.283 2.268 0.735 3.023 1.353 0.753 0.618 1.297 1.41 1.631 2.374s0.501 2.125 0.501 3.486z" fill="#1a1a1a"/>
   </g>
   <g transform="translate(385.25 104.09)">
    <path d="m0 0v22.253h-10.236v4.709h25.182v-4.709h-10.236v-22.253z" fill="#1a1a1a"/>
   </g>
   <g transform="translate(421.56 108.8)">
    <path d="m0 0c1.235 0 2.374 0.223 3.412 0.668s1.935 1.057 2.689 1.835c0.754 0.78 1.34 1.713 1.761 2.801 0.42 1.087 0.631 2.262 0.631 3.523s-0.211 2.429-0.631 3.505c-0.421 1.075-1.007 1.996-1.761 2.763-0.754 0.766-1.651 1.366-2.689 1.799-1.038 0.432-2.177 0.649-3.412 0.649h-6.564c-1.213 0-2.331-0.217-3.357-0.649-1.026-0.433-1.91-1.033-2.651-1.799-0.742-0.767-1.324-1.682-1.743-2.745-0.421-1.063-0.631-2.238-0.631-3.523 0-1.261 0.21-2.436 0.631-3.523 0.419-1.088 1.001-2.021 1.743-2.801 0.741-0.778 1.625-1.39 2.651-1.835s2.144-0.668 3.357-0.668zm-6.564-4.71c-1.88 0-3.616 0.352-5.211 1.057-1.595 0.704-2.98 1.669-4.153 2.892-1.175 1.225-2.09 2.677-2.745 4.358-0.656 1.682-0.983 3.499-0.983 5.453 0 1.977 0.327 3.782 0.983 5.414 0.655 1.632 1.57 3.023 2.745 4.173 1.173 1.149 2.558 2.039 4.153 2.67 1.595 0.63 3.331 0.945 5.211 0.945h6.564c1.953 0 3.739-0.321 5.359-0.964 1.619-0.643 3.01-1.545 4.172-2.707 1.162-1.163 2.065-2.553 2.707-4.173 0.643-1.619 0.965-3.405 0.965-5.358 0-1.954-0.328-3.771-0.983-5.453-0.655-1.681-1.57-3.133-2.745-4.358-1.174-1.223-2.564-2.188-4.172-2.892-1.607-0.705-3.374-1.057-5.303-1.057z" fill="#1a1a1a"/>
   </g>
   <path d="m446.7 119.78h14.946v-3.968h-14.946zm-8.123-15.689v26.963h24.069v-4.71h-19.396v-17.542h19.434v-4.711z" fill="#00b8de"/>
   <g transform="translate(479.19 104.09)">
    <path d="m0 0v10.237l-14.315 16.725h6.341l10.495-12.424 10.533 12.424h6.008l-14.353-16.725v-10.237z" fill="#00b8de"/>
   </g>
   <path d="m509.19 119.78h14.946v-3.968h-14.946zm-8.122-15.689v26.963h24.069v-4.71h-19.396v-17.542h19.434v-4.711z" fill="#00b8de"/>
  </g>
  <g transform="matrix(.35278 0 0 -.35278 -31.369 275.68)">
   <g transform="translate(231.03 199.64)">
    <path d="m0 0c-2.011-1.42-4.042-2.817-6.026-4.278-0.256-0.19-0.486-0.375-0.58-0.695-1.467-5.006-3.903-9.543-6.749-13.874-3.111-4.736-6.669-9.143-10.103-13.641-5.092-6.669-16.319-21.305-17.731-23.099-2.111 2.377-19.635 24.409-26.483 33.699-3.625 4.919-6.667 10.179-8.556 16.027-0.307 0.957-0.785 1.572-1.604 2.114-1.773 1.178-3.481 2.456-5.2 3.716-2.44 1.789-2.565 4.479-0.281 6.459 1.947 1.687 4.086 3.126 6.176 4.626 0.295 0.212 0.456 0.434 0.514 0.809 0.906 6.011 3.311 11.395 6.929 16.246 5.469 7.331 12.703 11.957 21.649 13.798 7.542 1.549 14.794 0.507 21.662-2.967 9.914-5.016 16.12-13.081 19.221-23.643 0.314-1.067 0.489-2.174 0.698-3.27 0.094-0.484 0.3-0.834 0.71-1.134 1.926-1.408 3.857-2.808 5.746-4.265 2.737-2.114 2.108-5.145 8e-3 -6.628" fill="#1a1a1a"/>
   </g>
   <g transform="translate(-170.54 -79.056)">
    <path d="m385.11 265.19c-1.322-0.934-2.811-1.572-4.199-2.388-2.044-1.199-4.174-2.215-6.387-3.063-2.045-0.784-4.15-1.335-6.282-1.824-4.178-0.957-8.389-1.189-12.632-0.672-2.947 0.359-5.824 1.04-8.647 2-3.519 1.195-6.796 2.87-10.009 4.698-0.632 0.36-1.222 0.796-1.911 1.048-0.19 0.07-0.465 0.301-0.586-0.112 1.225-2.325 2.74-4.467 4.321-6.548 5.909-7.773 11.868-15.508 17.814-23.254 1.141-1.488 2.305-2.959 3.486-4.474 0.868 1.151 1.674 2.231 2.492 3.303 6.321 8.283 12.66 16.552 18.957 24.852 1.553 2.047 3.049 4.144 4.234 6.439-0.101 0.082-0.206 0.117-0.309 0.117-0.119 0-0.235-0.047-0.342-0.122" fill="url(#linearGradient62)"/>
    <path d="m351.5 315.07c-8.144-2.521-14.051-7.827-18.245-15.138-0.953-1.662-1.662-3.439-2.25-5.391 0.36 0.235 0.618 0.396 0.869 0.567 3.892 2.659 8.002 4.924 12.359 6.723 4.392 1.814 8.939 3.046 13.695 3.364 6.084 0.406 11.885-0.842 17.482-3.164 4.759-1.973 9.228-4.484 13.578-7.398-0.084 0.288-0.134 0.508-0.211 0.718-2.335 6.49-6.376 11.691-12.014 15.622-5.185 3.615-10.679 5.484-16.464 5.484-2.863-1e-3 -5.797-0.458-8.799-1.387" fill="url(#linearGradient82)"/>
    <path d="m366 298.28c0.352-0.354 0.6-0.78 0.905-1.165 0.392-0.494 0.801-1 0.986-1.854-0.888 0.657-1.766 0.949-2.601 1.335-1.798 0.83-3.728 0.988-5.633 0.943-2.545-0.06-4.955-0.796-7.13-2.185-0.164-0.104-0.347-0.341-0.54-0.168-0.197 0.175-0.073 0.437 9e-3 0.656 0.036 0.097 0.108 0.181 0.142 0.277 0.232 0.655 0.698 1.129 1.174 1.613 0.346 0.351 0.284 0.491-0.126 0.603-1.384-0.597-2.605-1.462-3.718-2.45-6.459-5.737-7.717-15.518-2.957-22.752 4.956-7.533 14.621-9.801 22.01-5.164 5.912 3.709 9.091 11.047 7.725 18.024-1.158 5.919-4.401 10.242-10.011 12.667-0.074 0.015-0.138 0.023-0.191 0.023-0.258 0-0.278-0.169-0.044-0.403" fill="url(#linearGradient104)"/>
    <g clip-path="url(#clipPath114)">
     <g transform="translate(385.76 265.2)">
      <path d="m0 0c-0.439 0.038-0.658-0.337-0.981-0.518-1.487-0.834-3.006-1.614-4.467-2.49-1.534-0.92-3.175-1.613-4.797-2.335-1.387-0.617-2.859-1.069-4.326-1.475-1.54-0.426-3.11-0.764-4.684-1.045-3.095-0.552-6.206-0.71-9.356-0.45-1.682 0.138-3.345 0.356-4.986 0.692-2.655 0.542-5.232 1.351-7.751 2.381-2.401 0.981-4.675 2.198-6.959 3.402-0.856 0.451-1.622 1.066-2.515 1.458-0.147 0.065-0.295 0.257-0.482 0.062-0.99 1.429-1.717 2.998-2.528 4.697 1.572-0.883 3.013-1.714 4.475-2.507 6.008-3.261 12.336-5.591 19.146-6.466 4.509-0.58 8.974-0.219 13.401 0.767 5.91 1.317 11.377 3.725 16.613 6.709 0.785 0.448 1.57 0.898 2.562 1.466-0.802-1.6-1.529-3.002-2.365-4.348" fill="#c9dde4"/>
     </g>
    </g>
    <path d="m339.94 290.5c-0.658-0.638-1.577-0.757-2.322-1.211-2.061-1.256-4.06-2.602-6.04-3.987-1.979-1.384-3.839-2.927-5.862-4.249-0.345-0.225-0.645-0.51-0.46-0.998 0.12-0.099 0.232-0.208 0.36-0.296 5.019-3.481 10.245-6.618 15.693-9.383 0.513-0.26 1.026-0.519 1.6-0.81-0.036 0.152-0.036 0.207-0.06 0.247-0.134 0.223-0.275 0.441-0.412 0.661-2.745 4.405-3.91 9.193-3.484 14.367 0.155 1.874 0.649 3.676 1.167 5.473 0.045 0.135-0.019 0.224-0.095 0.224-0.028 0-0.058-0.012-0.085-0.038" fill="url(#linearGradient138)"/>
    <path d="m380.05 290.32c0.03-0.126 0.053-0.255 0.092-0.378 1.837-5.781 1.4-11.413-1.079-16.923-0.534-1.188-1.248-2.272-1.998-3.452 3.07 1.101 13.486 7.281 17.703 10.474-0.038 0.549-0.531 0.731-0.864 1.016-3.059 2.622-6.321 4.969-9.747 7.086-1.19 0.736-2.364 1.499-3.572 2.205-0.137 0.081-0.209 0.121-0.274 0.121-0.071 0-0.133-0.049-0.261-0.149" fill="url(#linearGradient160)"/>
    <path d="m342.16 295.16c-2.979-1.582-5.952-3.171-8.768-5.039-3.615-2.4-7.074-5.001-10.436-7.739-0.381-0.312-0.346-0.472 0.015-0.719 0.766-0.525 1.522-1.066 2.283-1.601-0.045 0.372 0.295 0.648 0.465 0.755 2.024 1.26 3.832 2.811 5.772 4.183 2.767 1.959 5.578 3.827 8.627 5.321 0.738 1.694 1.425 3.414 2.495 4.963-0.187-0.01-0.326-0.057-0.453-0.124" fill="url(#linearGradient192)"/>
    <path d="m380.05 290.32c0.097 0.118 0.156 0.035 0.248-0.026 0.997-0.643 1.978-1.318 3.007-1.908 2.135-1.224 4.165-2.609 6.151-4.051 1.84-1.339 3.601-2.789 5.312-4.294 0.963 0.542 1.772 1.289 2.734 1.967-6.169 5.001-12.48 9.572-19.696 13.138 0.967-1.662 1.62-3.237 2.244-4.826" fill="url(#linearGradient224)"/>
    <path d="m353.18 298.34c0.099-0.045 0.324-0.043 0.185-0.218-0.189-0.237-0.383-0.471-0.63-0.674-0.653-0.534-0.929-1.299-1.078-2.104-0.035-0.185-0.08-0.435 0.159-0.554 0.233-0.117 0.373 0.054 0.539 0.186 0.921 0.73 2.001 1.207 3.079 1.579 2.137 0.739 4.377 0.945 6.629 0.656 0.708-0.092 1.425-0.162 2.115-0.443 1.219-0.495 2.498-0.849 3.565-1.664 0.102-0.079 0.212-0.174 0.34-0.062 0.108 0.092 0.122 0.225 0.083 0.357-0.037 0.124-0.061 0.259-0.128 0.366-0.586 0.931-1.071 1.935-1.968 2.642-0.246 0.194 0.05 0.203 0.159 0.258-2.074 0.879-4.138 1.316-6.19 1.316-2.3 0-4.586-0.549-6.859-1.641" fill="url(#linearGradient256)"/>
    <g clip-path="url(#clipPath266)">
     <g transform="translate(360.25 288.14)">
      <path d="m0 0c-0.537-0.107-1.074-0.195-1.592-0.361-2.265-0.684-3.339-2.403-3.857-4.57-0.029-0.127-0.019-0.264-0.049-0.391-0.146-0.654-0.527-1.074-1.24-1.045-0.703 0.02-0.918 0.576-1.064 1.143-0.059 0.195-0.01 0.41-0.01 0.625 0.312 3.954 3.291 7.089 7.578 7.011 0.771-0.01 1.416-0.547 1.464-1.143 0.049-0.615-0.42-1.083-1.23-1.269m10.79-3.291c-0.829 5.019-5.029 8.828-10.087 9.179-5.156 0.362-9.863-2.783-11.396-7.626-1.006-3.164-0.576-6.201 0.85-9.15 0.332-1.318 1.338-2.158 2.256-2.998 2.236-2.07 4.892-3.017 7.978-2.881 2.831 0.137 5.224 1.172 7.255 3.125 0.205 0.205 0.391 0.42 0.469 0.703 2.324 2.822 3.281 6.015 2.675 9.648" fill="#1a1a1a"/>
     </g>
    </g>
   </g>
  </g>
 </g>
</svg>
